<?xml version="1.0" encoding="UTF-8"?>
<svg width="48px" height="30px" viewBox="0 0 48 30" version="1.1" xmlns="http://www.w3.org/2000/svg" xmlns:xlink="http://www.w3.org/1999/xlink">
    <!-- Generator: Sketch 48.2 (47327) - http://www.bohemiancoding.com/sketch -->
    <title>Close Button</title>
    <desc>Created with Sketch.</desc>
    <defs></defs>
    <g id="790---Suite-Detail---Slideshow" stroke="none" stroke-width="1" fill="none" fill-rule="evenodd" transform="translate(-4913.000000, -1474.000000)">
        <g id="Slideshow" transform="translate(3985.000000, 470.000000)" fill="#383838">
            <g id="Nav" transform="translate(869.000000, 998.000000)">
                <path d="M98.6395813,23.9718134 C96.6254581,26.8344994 95.4047635,27.3894093 94.3620505,27.5984815 C94.1529783,27.6404945 93.8797295,27.6712596 93.578031,27.6712596 C92.885646,27.6712596 92.0424113,27.5091629 91.4724259,26.946786 C91.2342429,26.7115801 90.9844813,26.3457044 90.9024405,25.8081382 C90.7168561,25.8643758 90.5206861,25.8967951 90.3152529,25.8967951 C89.8908237,25.8967951 89.5193243,25.7810116 89.2077014,25.6202379 C89.1240065,25.8544514 89.0125237,26.0757633 88.8735836,26.2775576 C88.3952322,26.9729203 87.657526,27.3556676 86.7960971,27.3556676 C85.9058874,27.3556676 85.2323584,26.8336496 85.0801856,26.0261424 C84.9455457,25.3119238 85.2747015,24.6271473 85.8625509,24.3975652 C86.2218105,24.2569709 86.6280451,24.4346157 86.7686393,24.7948677 C86.8979861,25.1256777 86.7580536,25.4951923 86.4550316,25.6619203 C86.445769,25.7075722 86.4477538,25.7843204 86.4831507,25.8441969 C86.5274791,25.9186291 86.6326764,25.9563414 86.7957654,25.9563414 C87.1940604,25.9563414 87.5050215,25.7975526 87.7203786,25.4842755 C87.9294508,25.1802611 88.0204235,24.7717106 87.9863501,24.3532362 C87.96187,24.1193544 87.918534,23.935093 87.8503872,23.7574482 C87.6376766,23.2016874 87.4061097,22.5231964 87.2129168,21.9346858 C85.3752675,24.3380198 83.653071,24.8028078 82.4330438,24.8931188 C82.3969856,24.9817756 82.3589427,25.0710942 82.3189145,25.1610746 C81.6245442,26.7258057 80.2831098,27.4489562 79.1335453,27.4489562 C78.9512692,27.4489562 78.773955,27.4307616 78.6045805,27.3950341 C77.8526496,27.2355834 77.0593675,26.6758531 76.772886,25.5792183 C75.6061192,26.9206527 74.4985677,27.6064216 73.4962134,27.6064216 C73.2107243,27.6064216 72.9341672,27.5508458 72.666542,27.4390318 C72.0734001,27.1909244 71.641693,26.730437 71.4180656,26.1071912 C71.1745895,25.4283691 71.1775667,24.5808342 71.3595121,23.6151999 C70.7981276,24.1468117 70.2728013,24.6099456 69.7785712,24.9973243 C67.6749509,26.7793972 65.6384849,27.6947483 63.8497954,27.6947483 C63.0766927,27.6947483 62.3502338,27.5240502 61.6839826,27.178354 C60.551951,26.5908357 59.7351811,25.5802112 59.3219993,24.2559791 C58.520447,21.6882325 59.2316884,18.0033405 61.2734474,14.1460964 C64.3453485,8.34203612 68.493705,5.58010374 71.8434862,7.10910732 C72.8021733,7.54676874 73.4049091,8.40224326 73.5865239,9.58356578 C73.6073651,9.71919806 73.6222514,9.85813814 73.6318447,9.99972475 C74.8287148,9.64509645 76.2419349,9.38938051 77.9145099,9.21008158 C78.0901699,9.19122517 78.2631834,9.17633883 78.4338814,9.16509141 C80.1001709,6.90632117 81.6106492,5.79678485 82.7843628,6.03066772 C83.427788,6.16001453 83.8611492,6.67276994 83.915402,7.36846321 C83.9785869,8.17597039 83.7605832,9.03508385 83.3530251,9.91603089 C84.4354353,10.3139952 85.4609461,10.8237734 86.5099447,11.3451297 C88.366781,12.2684204 90.2868017,13.2231379 92.8145206,13.7332468 C98.3390466,14.8480762 102.311412,13.8477067 105.316159,10.5855899 C105.578161,10.3010931 106.020453,10.2828985 106.30495,10.5445693 C106.589116,10.8065707 106.60731,11.2491945 106.34564,11.5333602 C103.022654,15.1405115 98.5067675,16.3086014 92.537964,15.1041222 C89.829292,14.5576241 87.7349343,13.5162345 85.88703,12.5975752 C84.7851022,12.049754 83.7490052,11.5346827 82.6699033,11.1565672 C81.747605,12.6190781 80.4329662,14.1020992 79.1262669,15.475291 C77.9872885,16.6721612 76.924396,17.8121324 75.9868808,18.8177945 C75.0745069,19.796661 74.2309415,20.701757 73.4472527,21.5198498 C72.8025039,23.2026798 72.4200877,24.753517 72.7360113,25.634464 C72.8283071,25.8918341 72.9735326,26.0502919 73.2070844,26.1478807 C73.9904421,26.4747211 75.4324425,25.2871136 76.8780818,23.1189854 C77.2270859,22.1573207 77.7841697,21.3653616 78.5351082,20.8056313 C79.4094386,20.1539358 80.405838,19.9279925 81.2699134,20.1853626 C81.9176393,20.3782249 82.4059146,20.797361 82.6821411,21.3971196 C82.9398418,21.9561882 83.0013725,22.6396417 82.8693791,23.418368 C83.9507969,23.1930866 85.3319284,22.4490948 86.850677,19.9908462 C87.0537943,19.6620211 87.484509,19.5598009 87.8136647,19.7629182 C87.9423498,19.8423124 88.0362997,19.9567728 88.0908831,20.0864503 C88.1051082,20.160883 88.6810485,22.0425301 89.1418665,23.2460169 C89.2325086,23.4832075 89.2966858,23.7270143 89.3347287,23.9718134 C89.4938482,24.151443 89.8504613,24.4865536 90.2987089,24.4865536 C90.6430821,24.4865536 91.0284755,24.1517741 91.3123105,23.817987 C91.3784725,23.718744 91.4482734,23.6304178 91.5193973,23.552016 C91.5713347,23.4782456 91.6153325,23.4097677 91.6494059,23.3512142 C91.7066359,23.2532942 91.7840453,23.1742306 91.8730333,23.1163389 C91.76552,22.7494708 91.7813988,22.3187561 91.921993,21.8291573 C92.2289846,20.7570022 93.0636179,20.0699098 94.1542983,19.9908462 C95.2281076,19.911452 96.1461052,20.5892818 96.3293737,21.5995751 C96.3981822,21.9800066 96.1457741,22.3438975 95.7656733,22.4130367 C95.3852418,22.4825069 95.0213509,22.2294375 94.9522117,21.8493367 C94.8890269,21.5013245 94.5453154,21.3643692 94.2555261,21.3868641 C93.7609653,21.4225916 93.4096453,21.7166816 93.2670663,22.2148813 C93.1691464,22.5569387 93.2038815,22.7249902 93.239609,22.7706421 C93.7533568,22.8106698 94.1079851,22.9036274 94.1751395,22.923145 C94.5066112,23.0184184 94.7189911,23.3412888 94.6756551,23.6833461 C94.6323191,24.0257346 94.3458376,24.2850895 94.0011337,24.2946827 C93.6716467,24.3099002 93.3792109,24.2874054 93.121179,24.2275289 C92.9759535,24.2463853 92.8300662,24.2874059 92.7066742,24.3644847 C92.6683001,24.3886337 92.6325726,24.4160909 92.5994916,24.446856 C92.5518549,24.5113639 92.4985945,24.5808342 92.4397103,24.6532816 C92.3728866,24.7730346 92.3235957,24.9195832 92.2905147,25.0945814 C92.1800243,25.6844156 92.375202,25.8772779 92.4397098,25.9407933 C92.7857373,26.2828507 93.6177241,26.3076614 94.0706029,26.2163581 C95.2585416,25.978175 96.1676071,25.2417923 97.2076737,23.675407 C97.264573,23.590058 97.7540697,22.7706421 98.2633549,23.0144226 C98.7726402,23.2582032 98.869106,23.6455884 98.6395813,23.9718134 Z M82.4340362,7.38036885 L82.433705,7.38036885 C82.1597945,7.38036885 81.3837141,7.73797432 80.1845281,9.18162888 C80.8236531,9.23753584 81.4290354,9.34637209 82.0112611,9.49490593 C82.3635735,8.77804085 82.5696679,8.08433237 82.5223624,7.47696529 C82.5183928,7.42469726 82.506153,7.39690935 82.5018523,7.39062388 C82.4846501,7.38400778 82.4618241,7.38036885 82.4340362,7.38036885 Z M68.8747982,23.9297979 L68.9058939,23.9039938 C69.8589572,23.1590096 70.9602233,22.0871856 72.2364881,20.7612993 C72.9576539,18.9358903 73.9838265,16.922581 75.0361328,14.9294511 C75.2346188,14.553651 75.4135871,14.2149014 75.5631133,13.9237886 C76.1863591,12.711701 76.8026582,11.6269754 77.4044015,10.677551 C75.8231299,10.8766987 74.5686987,11.1482939 73.5607208,11.4886971 C73.207416,13.8814454 71.8276075,16.5305715 70.7250179,17.5243244 C69.7719546,18.3834378 68.892331,18.2828718 68.3868535,17.9031021 C67.7222564,17.4035789 67.3543959,16.1650264 68.3147372,14.1874446 C69.1381231,12.4927055 70.3564962,11.3100599 72.2460824,10.4962673 C72.2513755,10.2501446 72.2384739,10.0152693 72.2047311,9.79594217 C72.0952331,9.08337778 71.7875798,8.62090563 71.263577,8.38173018 C68.6845824,7.20470835 65.1670803,9.78370287 62.5116687,14.8004354 C60.6432543,18.3305085 59.9680711,21.624714 60.6591331,23.8388247 C60.9631475,24.8127292 61.5255244,25.5183469 62.330385,25.93616 C64.5815468,27.1052422 67.3927695,25.1852215 68.8747982,23.9297979 Z M78.113327,14.5113074 C78.8917228,13.694537 80.2606145,12.2558444 81.2685924,10.7585988 C80.6053184,10.6166816 79.9116099,10.5366256 79.1659645,10.5392721 C78.4735795,11.5465883 77.6845976,12.8595731 76.8082819,14.563906 C76.6564403,14.8586578 76.4751565,15.2020387 76.274024,15.5828007 C75.9819188,16.1362456 75.6229898,16.815729 75.2455356,17.5626979 C76.114904,16.6304758 77.0821925,15.5950405 78.113327,14.5113074 Z M71.9930125,12.1761196 L71.9926813,12.1757885 C70.766038,12.8737976 70.0819233,13.7537523 69.574461,14.7987808 C68.9618008,16.0604899 69.1272058,16.7125165 69.2287647,16.7846328 C69.2591991,16.7945572 69.4643012,16.7776861 69.7891568,16.4849191 C70.5582899,15.7915412 71.5371564,13.9495917 71.9930125,12.1761196 Z M78.8963541,26.0254776 L78.8963546,26.0248153 C79.518608,26.1564775 80.4104718,25.7724072 80.9318281,24.8143813 C80.3320695,24.637729 79.8600036,24.2344716 79.610242,23.662832 C79.4554232,23.3088655 79.6171892,22.8963455 79.9711558,22.7415266 C80.3257841,22.5870385 80.7379735,22.7484739 80.8927923,23.1024404 C80.960939,23.2582521 81.1078187,23.4388746 81.4250654,23.4964357 C81.5792229,22.8678968 81.5782305,22.3405857 81.4128255,21.981326 C81.3053123,21.7481049 81.1332912,21.60321 80.8716205,21.5251389 C80.7707233,21.495035 80.6625483,21.4801487 80.5494114,21.4801487 C80.1815509,21.4801487 79.7620841,21.636291 79.3727207,21.9264115 C78.5523119,22.5380792 78.0627131,23.5589587 78.0627131,24.6575788 C78.0627131,25.4257195 78.3587879,25.9113482 78.8963541,26.0254776 Z M96.0557414,31.4178206 C96.3025771,31.6773745 96.3183266,32.114208 96.0915354,32.3946561 C91.4070942,38.1874314 84.4043426,35.7061659 78.777515,33.7146239 C77.5699664,33.2901969 76.4291379,32.8657699 75.3541706,32.5637737 C71.2573245,31.3626456 62.1521725,30.5255449 60.1591586,35.6082212 C60.0583624,35.8694071 59.8372982,36 59.6056391,36 C59.5228832,36 59.4389821,36 59.3585172,35.9347035 C59.052979,35.8041106 58.9163887,35.3796836 59.052979,35.0532013 C60.10332,32.3629873 62.7626759,30.7426555 66.7438354,30.3528355 C70.0234311,30.0312502 73.4971738,30.5931265 75.6554128,31.2255226 C76.7595881,31.5490667 77.914448,31.9588021 79.1368871,32.3926968 C84.713603,34.3669354 91.0345493,36.6196633 95.2001198,31.4583046 C95.4266248,31.1775296 95.8097646,31.159573 96.0557414,31.4178206 Z" id="Close-Button"></path>
            </g>
        </g>
    </g>
</svg>